<mxfile host="app.diagrams.net" modified="2022-12-11T13:10:08.595Z" agent="5.0 (Macintosh; Intel Mac OS X 10_15_7) AppleWebKit/537.36 (KHTML, like Gecko) Chrome/108.0.0.0 Safari/537.36" etag="jmoc-ibCCBevWLbHILaM" version="20.6.0" type="github">
  <diagram id="P7JamYWp7NVOv1stkI_S" name="Page-1">
    <mxGraphModel dx="3457" dy="3366" grid="1" gridSize="10" guides="1" tooltips="1" connect="1" arrows="1" fold="1" page="1" pageScale="1" pageWidth="827" pageHeight="1169" math="0" shadow="0">
      <root>
        <mxCell id="0" />
        <mxCell id="1" parent="0" />
        <mxCell id="owkmpuubnjTbK1H9jRby-1" value="hbgrawhouse" style="rounded=0;whiteSpace=wrap;html=1;" parent="1" vertex="1">
          <mxGeometry x="590" y="100" width="110" height="60" as="geometry" />
        </mxCell>
        <mxCell id="owkmpuubnjTbK1H9jRby-71" value="SCF1: &lt;font face=&quot;JetBrains Mono, monospace&quot; style=&quot;font-size: 16px;&quot;&gt;&lt;span style=&quot;font-size: 16px;&quot;&gt;OpenApiSellHouseServer#modifyHouse&lt;/span&gt;&lt;/font&gt;" style="text;html=1;strokeColor=none;fillColor=none;align=center;verticalAlign=middle;whiteSpace=wrap;rounded=0;fontColor=#000000;fontSize=16;" parent="1" vertex="1">
          <mxGeometry x="30" y="789" width="430" height="31" as="geometry" />
        </mxCell>
        <mxCell id="owkmpuubnjTbK1H9jRby-74" style="edgeStyle=orthogonalEdgeStyle;rounded=0;orthogonalLoop=1;jettySize=auto;html=1;entryX=0;entryY=0.5;entryDx=0;entryDy=0;fontColor=#000000;" parent="1" source="owkmpuubnjTbK1H9jRby-72" target="owkmpuubnjTbK1H9jRby-73" edge="1">
          <mxGeometry relative="1" as="geometry" />
        </mxCell>
        <mxCell id="owkmpuubnjTbK1H9jRby-76" value="SCF1" style="edgeLabel;html=1;align=center;verticalAlign=middle;resizable=0;points=[];fontColor=#000000;" parent="owkmpuubnjTbK1H9jRby-74" vertex="1" connectable="0">
          <mxGeometry x="-0.05" y="1" relative="1" as="geometry">
            <mxPoint as="offset" />
          </mxGeometry>
        </mxCell>
        <mxCell id="owkmpuubnjTbK1H9jRby-72" value="&lt;div style=&quot;text-align: left;&quot;&gt;hugopenapi&lt;br&gt;&lt;/div&gt;" style="rounded=0;whiteSpace=wrap;html=1;fontColor=#000000;" parent="1" vertex="1">
          <mxGeometry x="40" y="100" width="120" height="60" as="geometry" />
        </mxCell>
        <mxCell id="owkmpuubnjTbK1H9jRby-75" style="edgeStyle=orthogonalEdgeStyle;rounded=0;orthogonalLoop=1;jettySize=auto;html=1;fontColor=#000000;" parent="1" source="owkmpuubnjTbK1H9jRby-73" target="owkmpuubnjTbK1H9jRby-1" edge="1">
          <mxGeometry relative="1" as="geometry" />
        </mxCell>
        <mxCell id="owkmpuubnjTbK1H9jRby-77" value="SCF2" style="edgeLabel;html=1;align=center;verticalAlign=middle;resizable=0;points=[];fontColor=#000000;" parent="owkmpuubnjTbK1H9jRby-75" vertex="1" connectable="0">
          <mxGeometry x="-0.1333" y="2" relative="1" as="geometry">
            <mxPoint as="offset" />
          </mxGeometry>
        </mxCell>
        <mxCell id="owkmpuubnjTbK1H9jRby-73" value="jikejiaopenapi" style="rounded=0;whiteSpace=wrap;html=1;fontColor=#000000;" parent="1" vertex="1">
          <mxGeometry x="280" y="100" width="120" height="60" as="geometry" />
        </mxCell>
        <mxCell id="owkmpuubnjTbK1H9jRby-78" value="SCF2:&amp;nbsp;&lt;span style=&quot;background-color: rgb(255, 255, 255); font-family: &amp;quot;JetBrains Mono&amp;quot;, monospace; font-size: 16px;&quot;&gt;IHousePublishService#&lt;/span&gt;&lt;font face=&quot;JetBrains Mono, monospace&quot; style=&quot;font-size: 16px;&quot;&gt;&lt;span style=&quot;font-size: 16px;&quot;&gt;save&lt;/span&gt;&lt;/font&gt;" style="text;html=1;strokeColor=none;fillColor=none;align=center;verticalAlign=middle;whiteSpace=wrap;rounded=0;fontColor=#000000;fontSize=16;" parent="1" vertex="1">
          <mxGeometry x="60" y="830" width="285" height="31" as="geometry" />
        </mxCell>
        <mxCell id="owkmpuubnjTbK1H9jRby-79" value="hbgplatformhouse" style="rounded=0;whiteSpace=wrap;html=1;fontColor=#000000;" parent="1" vertex="1">
          <mxGeometry x="1090" y="240" width="120" height="60" as="geometry" />
        </mxCell>
        <mxCell id="owkmpuubnjTbK1H9jRby-89" style="edgeStyle=orthogonalEdgeStyle;rounded=0;orthogonalLoop=1;jettySize=auto;html=1;entryX=0.5;entryY=0;entryDx=0;entryDy=0;fontColor=#000000;" parent="1" source="owkmpuubnjTbK1H9jRby-80" target="owkmpuubnjTbK1H9jRby-79" edge="1">
          <mxGeometry relative="1" as="geometry" />
        </mxCell>
        <mxCell id="owkmpuubnjTbK1H9jRby-248" value="SCF3&lt;br&gt;SCF4" style="edgeLabel;html=1;align=center;verticalAlign=middle;resizable=0;points=[];fontColor=#000000;" parent="owkmpuubnjTbK1H9jRby-89" vertex="1" connectable="0">
          <mxGeometry x="-0.1934" relative="1" as="geometry">
            <mxPoint as="offset" />
          </mxGeometry>
        </mxCell>
        <mxCell id="owkmpuubnjTbK1H9jRby-80" value="hbgaggregatehouse" style="rounded=0;whiteSpace=wrap;html=1;fontColor=#000000;" parent="1" vertex="1">
          <mxGeometry x="850" y="100" width="120" height="60" as="geometry" />
        </mxCell>
        <mxCell id="owkmpuubnjTbK1H9jRby-81" value="PARAMS1:IRoughHouseCheckService#checkHouseParam" style="text;html=1;strokeColor=none;fillColor=none;align=center;verticalAlign=middle;whiteSpace=wrap;rounded=0;fontColor=#000000;fontSize=16;" parent="1" vertex="1">
          <mxGeometry x="480" y="789" width="447" height="31" as="geometry" />
        </mxCell>
        <mxCell id="owkmpuubnjTbK1H9jRby-84" value="调用PARAMS1参数校验&lt;br&gt;通过才入库" style="shape=document;whiteSpace=wrap;html=1;boundedLbl=1;fillColor=#d5e8d4;strokeColor=#82b366;" parent="1" vertex="1">
          <mxGeometry x="687" y="210" width="150" height="80" as="geometry" />
        </mxCell>
        <mxCell id="owkmpuubnjTbK1H9jRby-86" value="" style="endArrow=none;dashed=1;html=1;rounded=0;fontColor=#000000;exitX=0.5;exitY=0;exitDx=0;exitDy=0;entryX=0.5;entryY=1;entryDx=0;entryDy=0;" parent="1" source="owkmpuubnjTbK1H9jRby-84" target="owkmpuubnjTbK1H9jRby-1" edge="1">
          <mxGeometry width="50" height="50" relative="1" as="geometry">
            <mxPoint x="660" y="250" as="sourcePoint" />
            <mxPoint x="710" y="200" as="targetPoint" />
          </mxGeometry>
        </mxCell>
        <mxCell id="owkmpuubnjTbK1H9jRby-88" value="" style="shape=link;html=1;rounded=0;fontColor=#000000;width=4;exitX=1;exitY=0.5;exitDx=0;exitDy=0;entryX=0;entryY=0.5;entryDx=0;entryDy=0;" parent="1" source="owkmpuubnjTbK1H9jRby-1" target="owkmpuubnjTbK1H9jRby-80" edge="1">
          <mxGeometry width="100" relative="1" as="geometry">
            <mxPoint x="718" y="129.5" as="sourcePoint" />
            <mxPoint x="818" y="129.5" as="targetPoint" />
          </mxGeometry>
        </mxCell>
        <mxCell id="owkmpuubnjTbK1H9jRby-90" value="MQ" style="edgeLabel;html=1;align=center;verticalAlign=middle;resizable=0;points=[];fontColor=#000000;" parent="owkmpuubnjTbK1H9jRby-88" vertex="1" connectable="0">
          <mxGeometry x="0.08" y="2" relative="1" as="geometry">
            <mxPoint y="1" as="offset" />
          </mxGeometry>
        </mxCell>
        <mxCell id="owkmpuubnjTbK1H9jRby-92" value="&lt;font color=&quot;#ff8000&quot;&gt;赋默认值&lt;/font&gt;" style="text;html=1;align=center;verticalAlign=middle;resizable=0;points=[];autosize=1;strokeColor=none;fillColor=none;fontColor=#000000;" parent="1" vertex="1">
          <mxGeometry x="880" y="100" width="70" height="30" as="geometry" />
        </mxCell>
        <mxCell id="owkmpuubnjTbK1H9jRby-96" style="edgeStyle=orthogonalEdgeStyle;rounded=0;orthogonalLoop=1;jettySize=auto;html=1;exitX=1;exitY=0.5;exitDx=0;exitDy=0;entryX=0.5;entryY=1;entryDx=0;entryDy=0;fontColor=#000000;" parent="1" source="owkmpuubnjTbK1H9jRby-93" target="owkmpuubnjTbK1H9jRby-79" edge="1">
          <mxGeometry relative="1" as="geometry" />
        </mxCell>
        <mxCell id="owkmpuubnjTbK1H9jRby-101" value="SCF3" style="edgeLabel;html=1;align=center;verticalAlign=middle;resizable=0;points=[];fontColor=#000000;" parent="owkmpuubnjTbK1H9jRby-96" vertex="1" connectable="0">
          <mxGeometry x="0.0545" relative="1" as="geometry">
            <mxPoint as="offset" />
          </mxGeometry>
        </mxCell>
        <mxCell id="owkmpuubnjTbK1H9jRby-93" value="hbgplathouseopen" style="rounded=0;whiteSpace=wrap;html=1;fontColor=#000000;" parent="1" vertex="1">
          <mxGeometry x="583.5" y="380" width="120" height="60" as="geometry" />
        </mxCell>
        <mxCell id="owkmpuubnjTbK1H9jRby-95" style="edgeStyle=orthogonalEdgeStyle;rounded=0;orthogonalLoop=1;jettySize=auto;html=1;exitX=1;exitY=0.5;exitDx=0;exitDy=0;fontColor=#000000;" parent="1" source="owkmpuubnjTbK1H9jRby-94" edge="1">
          <mxGeometry relative="1" as="geometry">
            <mxPoint x="580" y="410" as="targetPoint" />
          </mxGeometry>
        </mxCell>
        <mxCell id="owkmpuubnjTbK1H9jRby-94" value="hbg_scf_hbgplathouseopen巧房" style="rounded=0;whiteSpace=wrap;html=1;fontColor=#000000;" parent="1" vertex="1">
          <mxGeometry x="240" y="380" width="160" height="60" as="geometry" />
        </mxCell>
        <mxCell id="owkmpuubnjTbK1H9jRby-99" value="调用PARAMS2参数校验&lt;br&gt;通过才入库" style="shape=document;whiteSpace=wrap;html=1;boundedLbl=1;fillColor=#d5e8d4;strokeColor=#82b366;" parent="1" vertex="1">
          <mxGeometry x="687" y="510" width="150" height="90" as="geometry" />
        </mxCell>
        <mxCell id="owkmpuubnjTbK1H9jRby-100" value="PARAMS2:IPlatHouseOpenCheckService#checkHouseParam" style="text;html=1;strokeColor=none;fillColor=none;align=center;verticalAlign=middle;whiteSpace=wrap;rounded=0;fontColor=#000000;fontSize=16;" parent="1" vertex="1">
          <mxGeometry x="487" y="829" width="447" height="31" as="geometry" />
        </mxCell>
        <mxCell id="owkmpuubnjTbK1H9jRby-103" value="SCF3:&amp;nbsp;&lt;span style=&quot;background-color: rgb(255, 255, 255); font-size: 16px;&quot;&gt;&lt;font face=&quot;JetBrains Mono, monospace&quot; style=&quot;font-size: 16px;&quot;&gt;&lt;span style=&quot;font-size: 16px;&quot;&gt;ISkuWriteService&lt;/span&gt;&lt;span style=&quot;font-size: 16px;&quot;&gt;#&lt;/span&gt;&lt;/font&gt;&lt;/span&gt;&lt;font face=&quot;JetBrains Mono, monospace&quot; style=&quot;font-size: 16px;&quot;&gt;&lt;span style=&quot;font-size: 16px;&quot;&gt;addCompanySku&lt;/span&gt;&lt;/font&gt;" style="text;html=1;strokeColor=none;fillColor=none;align=center;verticalAlign=middle;whiteSpace=wrap;rounded=0;fontColor=#000000;fontSize=16;" parent="1" vertex="1">
          <mxGeometry x="60" y="870" width="330" height="31" as="geometry" />
        </mxCell>
        <mxCell id="owkmpuubnjTbK1H9jRby-200" value="方案一（企业、非企业分开存）" style="swimlane;childLayout=stackLayout;resizeParent=1;resizeParentMax=0;startSize=20;html=1;fontColor=#000000;" parent="1" vertex="1">
          <mxGeometry x="1745" y="120" width="1150" height="480" as="geometry" />
        </mxCell>
        <mxCell id="S1WS7Dnw3RNSZnDwR1E6-13" value="sku编辑" style="swimlane;startSize=20;html=1;fontColor=#000000;" parent="owkmpuubnjTbK1H9jRby-200" vertex="1">
          <mxGeometry y="20" width="200" height="460" as="geometry" />
        </mxCell>
        <mxCell id="owkmpuubnjTbK1H9jRby-223" value="保存" style="rounded=0;whiteSpace=wrap;html=1;fontColor=#000000;" parent="S1WS7Dnw3RNSZnDwR1E6-13" vertex="1">
          <mxGeometry x="40" y="43" width="120" height="60" as="geometry" />
        </mxCell>
        <mxCell id="owkmpuubnjTbK1H9jRby-201" value="糙库、巧房" style="swimlane;startSize=20;html=1;fontColor=#000000;" parent="owkmpuubnjTbK1H9jRby-200" vertex="1">
          <mxGeometry x="200" y="20" width="200" height="460" as="geometry" />
        </mxCell>
        <mxCell id="owkmpuubnjTbK1H9jRby-202" value="新增" style="rounded=0;whiteSpace=wrap;html=1;fontColor=#000000;" parent="owkmpuubnjTbK1H9jRby-201" vertex="1">
          <mxGeometry x="50" y="43" width="90" height="60" as="geometry" />
        </mxCell>
        <mxCell id="owkmpuubnjTbK1H9jRby-225" style="edgeStyle=orthogonalEdgeStyle;rounded=0;orthogonalLoop=1;jettySize=auto;html=1;entryX=0;entryY=0.5;entryDx=0;entryDy=0;fontColor=#000000;exitX=0.75;exitY=1;exitDx=0;exitDy=0;" parent="owkmpuubnjTbK1H9jRby-201" source="owkmpuubnjTbK1H9jRby-223" edge="1">
          <mxGeometry relative="1" as="geometry">
            <mxPoint x="270" y="550" as="sourcePoint" />
            <mxPoint x="270" y="160" as="targetPoint" />
            <Array as="points">
              <mxPoint x="-70" y="160" />
            </Array>
          </mxGeometry>
        </mxCell>
        <mxCell id="owkmpuubnjTbK1H9jRby-226" value="写" style="edgeLabel;html=1;align=center;verticalAlign=middle;resizable=0;points=[];fontColor=#000000;" parent="owkmpuubnjTbK1H9jRby-225" vertex="1" connectable="0">
          <mxGeometry x="-0.4164" y="-1" relative="1" as="geometry">
            <mxPoint x="-1" y="-2" as="offset" />
          </mxGeometry>
        </mxCell>
        <mxCell id="owkmpuubnjTbK1H9jRby-203" value="plathouse" style="swimlane;startSize=20;html=1;fontColor=#000000;" parent="owkmpuubnjTbK1H9jRby-200" vertex="1">
          <mxGeometry x="400" y="20" width="290" height="460" as="geometry" />
        </mxCell>
        <mxCell id="owkmpuubnjTbK1H9jRby-204" style="edgeStyle=orthogonalEdgeStyle;rounded=0;orthogonalLoop=1;jettySize=auto;html=1;exitX=0.5;exitY=1;exitDx=0;exitDy=0;entryX=0.5;entryY=0;entryDx=0;entryDy=0;fontColor=#000000;" parent="owkmpuubnjTbK1H9jRby-203" source="owkmpuubnjTbK1H9jRby-205" edge="1">
          <mxGeometry relative="1" as="geometry">
            <mxPoint x="130" y="240" as="targetPoint" />
          </mxGeometry>
        </mxCell>
        <mxCell id="owkmpuubnjTbK1H9jRby-205" value="新增接口" style="rounded=0;whiteSpace=wrap;html=1;fontColor=#000000;" parent="owkmpuubnjTbK1H9jRby-203" vertex="1">
          <mxGeometry x="70" y="130" width="120" height="60" as="geometry" />
        </mxCell>
        <mxCell id="owkmpuubnjTbK1H9jRby-231" style="edgeStyle=orthogonalEdgeStyle;rounded=0;orthogonalLoop=1;jettySize=auto;html=1;exitX=0.5;exitY=0;exitDx=0;exitDy=0;entryX=0.433;entryY=1.05;entryDx=0;entryDy=0;entryPerimeter=0;strokeColor=#000000;fontColor=#000000;" parent="owkmpuubnjTbK1H9jRby-203" source="owkmpuubnjTbK1H9jRby-209" target="owkmpuubnjTbK1H9jRby-228" edge="1">
          <mxGeometry relative="1" as="geometry" />
        </mxCell>
        <mxCell id="owkmpuubnjTbK1H9jRby-209" value="读接口（merge）" style="rounded=0;whiteSpace=wrap;html=1;fontColor=#000000;" parent="owkmpuubnjTbK1H9jRby-203" vertex="1">
          <mxGeometry x="70" y="370" width="120" height="60" as="geometry" />
        </mxCell>
        <mxCell id="owkmpuubnjTbK1H9jRby-229" style="edgeStyle=orthogonalEdgeStyle;rounded=0;orthogonalLoop=1;jettySize=auto;html=1;exitX=0.5;exitY=1;exitDx=0;exitDy=0;entryX=0.442;entryY=0.05;entryDx=0;entryDy=0;entryPerimeter=0;strokeColor=#000000;fontColor=#000000;" parent="owkmpuubnjTbK1H9jRby-203" source="owkmpuubnjTbK1H9jRby-227" target="owkmpuubnjTbK1H9jRby-228" edge="1">
          <mxGeometry relative="1" as="geometry" />
        </mxCell>
        <mxCell id="owkmpuubnjTbK1H9jRby-233" value="非企业数据" style="edgeLabel;html=1;align=center;verticalAlign=middle;resizable=0;points=[];fontColor=#000000;" parent="owkmpuubnjTbK1H9jRby-229" vertex="1" connectable="0">
          <mxGeometry x="-0.2122" y="-1" relative="1" as="geometry">
            <mxPoint as="offset" />
          </mxGeometry>
        </mxCell>
        <mxCell id="owkmpuubnjTbK1H9jRby-227" value="&lt;font color=&quot;#000000&quot;&gt;判断&lt;/font&gt;&lt;span style=&quot;color: rgb(0, 0, 0);&quot;&gt;字段是否企业数据&lt;/span&gt;" style="rhombus;whiteSpace=wrap;html=1;fontColor=#FF0000;" parent="owkmpuubnjTbK1H9jRby-203" vertex="1">
          <mxGeometry x="65" y="230" width="130" height="60" as="geometry" />
        </mxCell>
        <mxCell id="owkmpuubnjTbK1H9jRby-215" style="edgeStyle=orthogonalEdgeStyle;rounded=0;orthogonalLoop=1;jettySize=auto;html=1;exitX=1;exitY=0.5;exitDx=0;exitDy=0;fontColor=#000000;" parent="owkmpuubnjTbK1H9jRby-203" edge="1">
          <mxGeometry relative="1" as="geometry">
            <mxPoint x="330" y="259.5" as="targetPoint" />
            <mxPoint x="190" y="259.5" as="sourcePoint" />
          </mxGeometry>
        </mxCell>
        <mxCell id="owkmpuubnjTbK1H9jRby-232" value="企业数据" style="edgeLabel;html=1;align=center;verticalAlign=middle;resizable=0;points=[];fontColor=#000000;" parent="owkmpuubnjTbK1H9jRby-215" vertex="1" connectable="0">
          <mxGeometry x="-0.1429" y="2" relative="1" as="geometry">
            <mxPoint y="1" as="offset" />
          </mxGeometry>
        </mxCell>
        <mxCell id="owkmpuubnjTbK1H9jRby-228" value="写非企业数据" style="rounded=0;whiteSpace=wrap;html=1;fontColor=#000000;" parent="owkmpuubnjTbK1H9jRby-203" vertex="1">
          <mxGeometry x="75" y="320" width="120" height="20" as="geometry" />
        </mxCell>
        <mxCell id="owkmpuubnjTbK1H9jRby-210" value="hmc" style="swimlane;startSize=20;html=1;fontColor=#000000;" parent="owkmpuubnjTbK1H9jRby-200" vertex="1">
          <mxGeometry x="690" y="20" width="230" height="460" as="geometry">
            <mxRectangle x="240" y="20" width="40" height="460" as="alternateBounds" />
          </mxGeometry>
        </mxCell>
        <mxCell id="owkmpuubnjTbK1H9jRby-211" value="写sku" style="rounded=0;whiteSpace=wrap;html=1;fontColor=#000000;" parent="owkmpuubnjTbK1H9jRby-210" vertex="1">
          <mxGeometry x="40" y="230" width="120" height="60" as="geometry" />
        </mxCell>
        <mxCell id="owkmpuubnjTbK1H9jRby-212" value="sku读服务" style="swimlane;startSize=20;html=1;fontColor=#000000;" parent="owkmpuubnjTbK1H9jRby-200" vertex="1">
          <mxGeometry x="920" y="20" width="230" height="460" as="geometry">
            <mxRectangle x="240" y="20" width="40" height="460" as="alternateBounds" />
          </mxGeometry>
        </mxCell>
        <mxCell id="owkmpuubnjTbK1H9jRby-213" value="读取请求" style="rounded=0;whiteSpace=wrap;html=1;fontColor=#000000;" parent="owkmpuubnjTbK1H9jRby-212" vertex="1">
          <mxGeometry x="60" y="250" width="120" height="60" as="geometry" />
        </mxCell>
        <mxCell id="owkmpuubnjTbK1H9jRby-214" style="edgeStyle=orthogonalEdgeStyle;rounded=0;orthogonalLoop=1;jettySize=auto;html=1;entryX=0.5;entryY=0;entryDx=0;entryDy=0;fontColor=#000000;" parent="owkmpuubnjTbK1H9jRby-200" source="owkmpuubnjTbK1H9jRby-202" target="owkmpuubnjTbK1H9jRby-205" edge="1">
          <mxGeometry relative="1" as="geometry" />
        </mxCell>
        <mxCell id="owkmpuubnjTbK1H9jRby-216" style="edgeStyle=orthogonalEdgeStyle;rounded=0;orthogonalLoop=1;jettySize=auto;html=1;entryX=1;entryY=0.75;entryDx=0;entryDy=0;fontColor=#FF0000;fillColor=#ffcccc;strokeColor=#FF0000;" parent="owkmpuubnjTbK1H9jRby-200" source="owkmpuubnjTbK1H9jRby-213" target="owkmpuubnjTbK1H9jRby-209" edge="1">
          <mxGeometry relative="1" as="geometry">
            <Array as="points">
              <mxPoint x="1040" y="435" />
            </Array>
          </mxGeometry>
        </mxCell>
        <mxCell id="owkmpuubnjTbK1H9jRby-217" style="edgeStyle=orthogonalEdgeStyle;rounded=0;orthogonalLoop=1;jettySize=auto;html=1;entryX=0.5;entryY=1;entryDx=0;entryDy=0;fontColor=#000000;" parent="owkmpuubnjTbK1H9jRby-200" source="owkmpuubnjTbK1H9jRby-209" target="owkmpuubnjTbK1H9jRby-211" edge="1">
          <mxGeometry relative="1" as="geometry" />
        </mxCell>
        <mxCell id="owkmpuubnjTbK1H9jRby-219" style="edgeStyle=orthogonalEdgeStyle;rounded=0;orthogonalLoop=1;jettySize=auto;html=1;entryX=0;entryY=0.5;entryDx=0;entryDy=0;fontColor=#000000;exitX=0.5;exitY=1;exitDx=0;exitDy=0;" parent="owkmpuubnjTbK1H9jRby-200" source="owkmpuubnjTbK1H9jRby-223" target="owkmpuubnjTbK1H9jRby-209" edge="1">
          <mxGeometry relative="1" as="geometry" />
        </mxCell>
        <mxCell id="S1WS7Dnw3RNSZnDwR1E6-14" value="读" style="edgeLabel;html=1;align=center;verticalAlign=middle;resizable=0;points=[];fontColor=#000000;" parent="owkmpuubnjTbK1H9jRby-219" vertex="1" connectable="0">
          <mxGeometry x="0.1401" relative="1" as="geometry">
            <mxPoint as="offset" />
          </mxGeometry>
        </mxCell>
        <mxCell id="owkmpuubnjTbK1H9jRby-218" value="" style="text;strokeColor=none;fillColor=none;align=left;verticalAlign=middle;spacingTop=-1;spacingLeft=4;spacingRight=4;rotatable=0;labelPosition=right;points=[];portConstraint=eastwest;fontColor=#000000;" parent="1" vertex="1">
          <mxGeometry x="1735" y="400" width="20" height="14" as="geometry" />
        </mxCell>
        <mxCell id="owkmpuubnjTbK1H9jRby-249" value="SCF4:&amp;nbsp;&lt;span style=&quot;background-color: rgb(255, 255, 255); font-size: 16px;&quot;&gt;&lt;font face=&quot;JetBrains Mono, monospace&quot; style=&quot;font-size: 16px;&quot;&gt;&lt;span style=&quot;font-size: 16px;&quot;&gt;ISkuWriteService&lt;/span&gt;&lt;span style=&quot;font-size: 16px;&quot;&gt;#&lt;/span&gt;&lt;/font&gt;&lt;/span&gt;&lt;font face=&quot;JetBrains Mono, monospace&quot; style=&quot;font-size: 16px;&quot;&gt;&lt;span style=&quot;font-size: 16px;&quot;&gt;updateSkuPart&lt;/span&gt;&lt;/font&gt;" style="text;html=1;strokeColor=none;fillColor=none;align=center;verticalAlign=middle;whiteSpace=wrap;rounded=0;fontColor=#000000;fontSize=16;" parent="1" vertex="1">
          <mxGeometry x="60" y="910" width="330" height="31" as="geometry" />
        </mxCell>
        <mxCell id="S1WS7Dnw3RNSZnDwR1E6-1" value="DEFAULT1:RoughEntity#assemble()" style="text;html=1;strokeColor=none;fillColor=none;align=center;verticalAlign=middle;whiteSpace=wrap;rounded=0;fontColor=#000000;fontSize=16;" parent="1" vertex="1">
          <mxGeometry x="989.5" y="789" width="280" height="31" as="geometry" />
        </mxCell>
        <mxCell id="S1WS7Dnw3RNSZnDwR1E6-2" value="调用DEFAULT1赋默认值" style="shape=document;whiteSpace=wrap;html=1;boundedLbl=1;fillColor=#d5e8d4;strokeColor=#82b366;" parent="1" vertex="1">
          <mxGeometry x="423" y="210" width="150" height="80" as="geometry" />
        </mxCell>
        <mxCell id="S1WS7Dnw3RNSZnDwR1E6-3" value="" style="endArrow=none;dashed=1;html=1;rounded=0;fontColor=#000000;exitX=0.5;exitY=0;exitDx=0;exitDy=0;" parent="1" source="S1WS7Dnw3RNSZnDwR1E6-2" edge="1">
          <mxGeometry width="50" height="50" relative="1" as="geometry">
            <mxPoint x="655" y="280" as="sourcePoint" />
            <mxPoint x="650" y="160" as="targetPoint" />
          </mxGeometry>
        </mxCell>
        <mxCell id="S1WS7Dnw3RNSZnDwR1E6-4" value="DEFAULT2-2:PlatSkuService#save()" style="text;html=1;strokeColor=none;fillColor=none;align=center;verticalAlign=middle;whiteSpace=wrap;rounded=0;fontColor=#000000;fontSize=16;" parent="1" vertex="1">
          <mxGeometry x="980" y="870" width="299" height="31" as="geometry" />
        </mxCell>
        <mxCell id="S1WS7Dnw3RNSZnDwR1E6-5" value="调用DEFAULT2赋默认值" style="shape=document;whiteSpace=wrap;html=1;boundedLbl=1;fillColor=#d5e8d4;strokeColor=#82b366;" parent="1" vertex="1">
          <mxGeometry x="424" y="510" width="150" height="80" as="geometry" />
        </mxCell>
        <mxCell id="S1WS7Dnw3RNSZnDwR1E6-9" value="" style="endArrow=none;dashed=1;html=1;dashPattern=1 3;strokeWidth=2;rounded=0;entryX=0.5;entryY=1;entryDx=0;entryDy=0;exitX=0.5;exitY=0;exitDx=0;exitDy=0;" parent="1" source="owkmpuubnjTbK1H9jRby-99" target="owkmpuubnjTbK1H9jRby-93" edge="1">
          <mxGeometry width="50" height="50" relative="1" as="geometry">
            <mxPoint x="430" y="470" as="sourcePoint" />
            <mxPoint x="480" y="420" as="targetPoint" />
          </mxGeometry>
        </mxCell>
        <mxCell id="S1WS7Dnw3RNSZnDwR1E6-10" value="" style="endArrow=none;dashed=1;html=1;rounded=0;entryX=0.5;entryY=1;entryDx=0;entryDy=0;exitX=0.5;exitY=0;exitDx=0;exitDy=0;" parent="1" source="S1WS7Dnw3RNSZnDwR1E6-5" target="owkmpuubnjTbK1H9jRby-93" edge="1">
          <mxGeometry width="50" height="50" relative="1" as="geometry">
            <mxPoint x="690" y="540" as="sourcePoint" />
            <mxPoint x="740" y="490" as="targetPoint" />
          </mxGeometry>
        </mxCell>
        <mxCell id="S1WS7Dnw3RNSZnDwR1E6-15" value="保存时，若为空则取&lt;br&gt;磐石数据&amp;gt;赋默认值&amp;gt;空" style="shape=document;whiteSpace=wrap;html=1;boundedLbl=1;fillColor=#d5e8d4;strokeColor=#82b366;" parent="1" vertex="1">
          <mxGeometry x="877" y="240" width="150" height="90" as="geometry" />
        </mxCell>
        <mxCell id="S1WS7Dnw3RNSZnDwR1E6-16" value="" style="endArrow=none;dashed=1;html=1;rounded=0;fontColor=#000000;entryX=1.013;entryY=0.386;entryDx=0;entryDy=0;entryPerimeter=0;" parent="1" target="S1WS7Dnw3RNSZnDwR1E6-15" edge="1">
          <mxGeometry width="50" height="50" relative="1" as="geometry">
            <mxPoint x="1090" y="275" as="sourcePoint" />
            <mxPoint x="1300" y="350" as="targetPoint" />
          </mxGeometry>
        </mxCell>
        <mxCell id="S1WS7Dnw3RNSZnDwR1E6-17" value="sku编辑，直接保存" style="shape=document;whiteSpace=wrap;html=1;boundedLbl=1;fillColor=#d5e8d4;strokeColor=#82b366;" parent="1" vertex="1">
          <mxGeometry x="1270" y="240" width="150" height="80" as="geometry" />
        </mxCell>
        <mxCell id="S1WS7Dnw3RNSZnDwR1E6-18" value="" style="endArrow=none;dashed=1;html=1;rounded=0;fontColor=#000000;entryX=1;entryY=0.5;entryDx=0;entryDy=0;exitX=-0.007;exitY=0.391;exitDx=0;exitDy=0;exitPerimeter=0;" parent="1" source="S1WS7Dnw3RNSZnDwR1E6-17" target="owkmpuubnjTbK1H9jRby-79" edge="1">
          <mxGeometry width="50" height="50" relative="1" as="geometry">
            <mxPoint x="1270" y="370" as="sourcePoint" />
            <mxPoint x="1240" y="320" as="targetPoint" />
          </mxGeometry>
        </mxCell>
        <mxCell id="S1WS7Dnw3RNSZnDwR1E6-19" value="DEFAULT2-1:PlatSkuPublishApplicationService#init" style="text;html=1;strokeColor=none;fillColor=none;align=center;verticalAlign=middle;whiteSpace=wrap;rounded=0;fontColor=#000000;fontSize=16;" parent="1" vertex="1">
          <mxGeometry x="980" y="830" width="409" height="31" as="geometry" />
        </mxCell>
        <mxCell id="S1WS7Dnw3RNSZnDwR1E6-20" value="调用PARAMS3参数校验&lt;br&gt;通过才入库" style="shape=document;whiteSpace=wrap;html=1;boundedLbl=1;fillColor=#d5e8d4;strokeColor=#82b366;" parent="1" vertex="1">
          <mxGeometry x="840" y="-50" width="150" height="90" as="geometry" />
        </mxCell>
        <mxCell id="S1WS7Dnw3RNSZnDwR1E6-21" value="" style="endArrow=none;dashed=1;html=1;rounded=0;fontColor=#000000;exitX=0.463;exitY=0.033;exitDx=0;exitDy=0;exitPerimeter=0;entryX=0.46;entryY=0.872;entryDx=0;entryDy=0;entryPerimeter=0;" parent="1" source="owkmpuubnjTbK1H9jRby-92" target="S1WS7Dnw3RNSZnDwR1E6-20" edge="1">
          <mxGeometry width="50" height="50" relative="1" as="geometry">
            <mxPoint x="920" y="90" as="sourcePoint" />
            <mxPoint x="970" y="40" as="targetPoint" />
          </mxGeometry>
        </mxCell>
        <mxCell id="S1WS7Dnw3RNSZnDwR1E6-22" value="PARAMS3:IPropertyCheckService#checkPropertyParams" style="text;html=1;strokeColor=none;fillColor=none;align=center;verticalAlign=middle;whiteSpace=wrap;rounded=0;fontColor=#000000;fontSize=16;" parent="1" vertex="1">
          <mxGeometry x="470" y="869" width="447" height="31" as="geometry" />
        </mxCell>
      </root>
    </mxGraphModel>
  </diagram>
</mxfile>
